<svg width="976" height="976" viewBox="0 0 976 976" fill="none" xmlns="http://www.w3.org/2000/svg">
<circle cx="40" cy="40" r="8" fill="white"/>
<circle cx="104" cy="40" r="8" fill="white"/>
<circle cx="168" cy="40" r="8" fill="white"/>
<circle cx="232" cy="40" r="8" fill="white"/>
<circle cx="296" cy="40" r="8" fill="white"/>
<circle cx="360" cy="40" r="8" fill="white"/>
<circle cx="424" cy="40" r="8" fill="white"/>
<circle cx="488" cy="40" r="8" fill="white"/>
<circle cx="552" cy="40" r="8" fill="white"/>
<circle cx="616" cy="40" r="8" fill="white"/>
<circle cx="680" cy="40" r="8" fill="white"/>
<circle cx="744" cy="40" r="8" fill="white"/>
<circle cx="808" cy="40" r="8" fill="white"/>
<circle cx="872" cy="40" r="8" fill="white"/>
<circle cx="936" cy="40" r="8" fill="white"/>
<circle cx="40" cy="104" r="8" fill="white"/>
<circle cx="104" cy="104" r="8" fill="white"/>
<circle cx="168" cy="104" r="8" fill="white"/>
<circle cx="232" cy="104" r="8" fill="white"/>
<circle cx="296" cy="104" r="8" fill="white"/>
<circle cx="360" cy="104" r="8" fill="white"/>
<circle cx="424" cy="104" r="8" fill="white"/>
<circle cx="488" cy="104" r="8" fill="white"/>
<circle cx="552" cy="104" r="8" fill="white"/>
<circle cx="616" cy="104" r="8" fill="white"/>
<circle cx="680" cy="104" r="8" fill="white"/>
<circle cx="744" cy="104" r="8" fill="white"/>
<circle cx="808" cy="104" r="8" fill="white"/>
<circle cx="872" cy="104" r="8" fill="white"/>
<circle cx="936" cy="104" r="8" fill="white"/>
<circle cx="40" cy="168" r="8" fill="white"/>
<circle cx="104" cy="168" r="8" fill="white"/>
<circle cx="168" cy="168" r="8" fill="white"/>
<circle cx="232" cy="168" r="8" fill="white"/>
<circle cx="296" cy="168" r="8" fill="white"/>
<circle cx="360" cy="168" r="8" fill="white"/>
<circle cx="424" cy="168" r="8" fill="white"/>
<circle cx="488" cy="168" r="8" fill="white"/>
<circle cx="552" cy="168" r="8" fill="white"/>
<circle cx="616" cy="168" r="8" fill="white"/>
<circle cx="680" cy="168" r="8" fill="white"/>
<circle cx="744" cy="168" r="8" fill="white"/>
<circle cx="808" cy="168" r="8" fill="white"/>
<circle cx="872" cy="168" r="8" fill="white"/>
<circle cx="936" cy="168" r="8" fill="white"/>
<circle cx="40" cy="232" r="8" fill="white"/>
<circle cx="104" cy="232" r="8" fill="white"/>
<circle cx="168" cy="232" r="8" fill="white"/>
<circle cx="232" cy="232" r="8" fill="white"/>
<circle cx="296" cy="232" r="8" fill="white"/>
<circle cx="360" cy="232" r="8" fill="white"/>
<circle cx="424" cy="232" r="8" fill="white"/>
<circle cx="488" cy="232" r="8" fill="white"/>
<circle cx="552" cy="232" r="8" fill="white"/>
<circle cx="616" cy="232" r="8" fill="white"/>
<circle cx="680" cy="232" r="8" fill="white"/>
<circle cx="744" cy="232" r="8" fill="white"/>
<circle cx="808" cy="232" r="8" fill="white"/>
<circle cx="872" cy="232" r="8" fill="white"/>
<circle cx="936" cy="232" r="8" fill="white"/>
<circle cx="40" cy="296" r="8" fill="white"/>
<circle cx="104" cy="296" r="8" fill="white"/>
<circle cx="168" cy="296" r="8" fill="white"/>
<circle cx="232" cy="296" r="8" fill="white"/>
<circle cx="296" cy="296" r="8" fill="white"/>
<circle cx="360" cy="296" r="8" fill="white"/>
<circle cx="424" cy="296" r="8" fill="white"/>
<circle cx="488" cy="296" r="8" fill="white"/>
<circle cx="552" cy="296" r="8" fill="white"/>
<circle cx="616" cy="296" r="8" fill="white"/>
<circle cx="680" cy="296" r="8" fill="white"/>
<circle cx="744" cy="296" r="8" fill="white"/>
<circle cx="808" cy="296" r="8" fill="white"/>
<circle cx="872" cy="296" r="8" fill="white"/>
<circle cx="936" cy="296" r="8" fill="white"/>
<circle cx="40" cy="360" r="8" fill="white"/>
<circle cx="104" cy="360" r="8" fill="white"/>
<circle cx="168" cy="360" r="8" fill="white"/>
<circle cx="232" cy="360" r="8" fill="white"/>
<circle cx="296" cy="360" r="8" fill="white"/>
<circle cx="360" cy="360" r="8" fill="white"/>
<circle cx="424" cy="360" r="8" fill="white"/>
<circle cx="488" cy="360" r="8" fill="white"/>
<circle cx="552" cy="360" r="8" fill="white"/>
<circle cx="616" cy="360" r="8" fill="white"/>
<circle cx="680" cy="360" r="8" fill="white"/>
<circle cx="744" cy="360" r="8" fill="white"/>
<circle cx="808" cy="360" r="8" fill="white"/>
<circle cx="872" cy="360" r="8" fill="white"/>
<circle cx="936" cy="360" r="8" fill="white"/>
<circle cx="40" cy="424" r="8" fill="white"/>
<circle cx="104" cy="424" r="8" fill="white"/>
<circle cx="168" cy="424" r="8" fill="white"/>
<circle cx="232" cy="424" r="8" fill="white"/>
<circle cx="296" cy="424" r="8" fill="white"/>
<circle cx="360" cy="424" r="8" fill="white"/>
<circle cx="424" cy="424" r="8" fill="white"/>
<circle cx="488" cy="424" r="8" fill="white"/>
<circle cx="552" cy="424" r="8" fill="white"/>
<circle cx="616" cy="424" r="8" fill="white"/>
<circle cx="680" cy="424" r="8" fill="white"/>
<circle cx="744" cy="424" r="8" fill="white"/>
<circle cx="808" cy="424" r="8" fill="white"/>
<circle cx="872" cy="424" r="8" fill="white"/>
<circle cx="936" cy="424" r="8" fill="white"/>
<circle cx="40" cy="488" r="8" fill="white"/>
<circle cx="104" cy="488" r="8" fill="white"/>
<circle cx="168" cy="488" r="8" fill="white"/>
<circle cx="232" cy="488" r="8" fill="white"/>
<circle cx="296" cy="488" r="8" fill="white"/>
<circle cx="360" cy="488" r="8" fill="white"/>
<circle cx="424" cy="488" r="8" fill="white"/>
<circle cx="488" cy="488" r="8" fill="white"/>
<circle cx="552" cy="488" r="8" fill="white"/>
<circle cx="616" cy="488" r="8" fill="white"/>
<circle cx="680" cy="488" r="8" fill="white"/>
<circle cx="744" cy="488" r="8" fill="white"/>
<circle cx="808" cy="488" r="8" fill="white"/>
<circle cx="872" cy="488" r="8" fill="white"/>
<circle cx="936" cy="488" r="8" fill="white"/>
<circle cx="40" cy="552" r="8" fill="white"/>
<circle cx="104" cy="552" r="8" fill="white"/>
<circle cx="168" cy="552" r="8" fill="white"/>
<circle cx="232" cy="552" r="8" fill="white"/>
<circle cx="296" cy="552" r="8" fill="white"/>
<circle cx="360" cy="552" r="8" fill="white"/>
<circle cx="424" cy="552" r="8" fill="white"/>
<circle cx="488" cy="552" r="8" fill="white"/>
<circle cx="552" cy="552" r="8" fill="white"/>
<circle cx="616" cy="552" r="8" fill="white"/>
<circle cx="680" cy="552" r="8" fill="white"/>
<circle cx="744" cy="552" r="8" fill="white"/>
<circle cx="808" cy="552" r="8" fill="white"/>
<circle cx="872" cy="552" r="8" fill="white"/>
<circle cx="936" cy="552" r="8" fill="white"/>
<circle cx="40" cy="616" r="8" fill="white"/>
<circle cx="104" cy="616" r="8" fill="white"/>
<circle cx="168" cy="616" r="8" fill="white"/>
<circle cx="232" cy="616" r="8" fill="white"/>
<circle cx="296" cy="616" r="8" fill="white"/>
<circle cx="360" cy="616" r="8" fill="white"/>
<circle cx="424" cy="616" r="8" fill="white"/>
<circle cx="488" cy="616" r="8" fill="white"/>
<circle cx="552" cy="616" r="8" fill="white"/>
<circle cx="616" cy="616" r="8" fill="white"/>
<circle cx="680" cy="616" r="8" fill="white"/>
<circle cx="744" cy="616" r="8" fill="white"/>
<circle cx="808" cy="616" r="8" fill="white"/>
<circle cx="872" cy="616" r="8" fill="white"/>
<circle cx="936" cy="616" r="8" fill="white"/>
<circle cx="40" cy="680" r="8" fill="white"/>
<circle cx="104" cy="680" r="8" fill="white"/>
<circle cx="168" cy="680" r="8" fill="white"/>
<circle cx="232" cy="680" r="8" fill="white"/>
<circle cx="296" cy="680" r="8" fill="white"/>
<circle cx="360" cy="680" r="8" fill="white"/>
<circle cx="424" cy="680" r="8" fill="white"/>
<circle cx="488" cy="680" r="8" fill="white"/>
<circle cx="552" cy="680" r="8" fill="white"/>
<circle cx="616" cy="680" r="8" fill="white"/>
<circle cx="680" cy="680" r="8" fill="white"/>
<circle cx="744" cy="680" r="8" fill="white"/>
<circle cx="808" cy="680" r="8" fill="white"/>
<circle cx="872" cy="680" r="8" fill="white"/>
<circle cx="936" cy="680" r="8" fill="white"/>
<circle cx="40" cy="744" r="8" fill="white"/>
<circle cx="104" cy="744" r="8" fill="white"/>
<circle cx="168" cy="744" r="8" fill="white"/>
<circle cx="232" cy="744" r="8" fill="white"/>
<circle cx="296" cy="744" r="8" fill="white"/>
<circle cx="360" cy="744" r="8" fill="white"/>
<circle cx="424" cy="744" r="8" fill="white"/>
<circle cx="488" cy="744" r="8" fill="white"/>
<circle cx="552" cy="744" r="8" fill="white"/>
<circle cx="616" cy="744" r="8" fill="white"/>
<circle cx="680" cy="744" r="8" fill="white"/>
<circle cx="744" cy="744" r="8" fill="white"/>
<circle cx="808" cy="744" r="8" fill="white"/>
<circle cx="872" cy="744" r="8" fill="white"/>
<circle cx="936" cy="744" r="8" fill="white"/>
<circle cx="40" cy="808" r="8" fill="white"/>
<circle cx="104" cy="808" r="8" fill="white"/>
<circle cx="168" cy="808" r="8" fill="white"/>
<circle cx="232" cy="808" r="8" fill="white"/>
<circle cx="296" cy="808" r="8" fill="white"/>
<circle cx="360" cy="808" r="8" fill="white"/>
<circle cx="424" cy="808" r="8" fill="white"/>
<circle cx="488" cy="808" r="8" fill="white"/>
<circle cx="552" cy="808" r="8" fill="white"/>
<circle cx="616" cy="808" r="8" fill="white"/>
<circle cx="680" cy="808" r="8" fill="white"/>
<circle cx="744" cy="808" r="8" fill="white"/>
<circle cx="808" cy="808" r="8" fill="white"/>
<circle cx="872" cy="808" r="8" fill="white"/>
<circle cx="936" cy="808" r="8" fill="white"/>
<circle cx="40" cy="872" r="8" fill="white"/>
<circle cx="104" cy="872" r="8" fill="white"/>
<circle cx="168" cy="872" r="8" fill="white"/>
<circle cx="232" cy="872" r="8" fill="white"/>
<circle cx="296" cy="872" r="8" fill="white"/>
<circle cx="360" cy="872" r="8" fill="white"/>
<circle cx="424" cy="872" r="8" fill="white"/>
<circle cx="488" cy="872" r="8" fill="white"/>
<circle cx="552" cy="872" r="8" fill="white"/>
<circle cx="616" cy="872" r="8" fill="white"/>
<circle cx="680" cy="872" r="8" fill="white"/>
<circle cx="744" cy="872" r="8" fill="white"/>
<circle cx="808" cy="872" r="8" fill="white"/>
<circle cx="872" cy="872" r="8" fill="white"/>
<circle cx="936" cy="872" r="8" fill="white"/>
<circle cx="40" cy="936" r="8" fill="white"/>
<circle cx="104" cy="936" r="8" fill="white"/>
<circle cx="168" cy="936" r="8" fill="white"/>
<circle cx="232" cy="936" r="8" fill="white"/>
<circle cx="296" cy="936" r="8" fill="white"/>
<circle cx="360" cy="936" r="8" fill="white"/>
<circle cx="424" cy="936" r="8" fill="white"/>
<circle cx="488" cy="936" r="8" fill="white"/>
<circle cx="552" cy="936" r="8" fill="white"/>
<circle cx="616" cy="936" r="8" fill="white"/>
<circle cx="680" cy="936" r="8" fill="white"/>
<circle cx="744" cy="936" r="8" fill="white"/>
<circle cx="808" cy="936" r="8" fill="white"/>
<circle cx="872" cy="936" r="8" fill="white"/>
<circle cx="936" cy="936" r="8" fill="white"/>
</svg>
