<svg className="fill-black" viewBox="0 0 378 521" fill="none" xmlns="http://www.w3.org/2000/svg">
<path d="M60.4596 245.192C58.7496 258.902 66.521 259.442 70.6204 257.998C26.9546 560.611 136.148 541.188 154.868 493.208C192.446 523.722 210.806 487.537 215.289 465.63C255.074 488.927 267.351 450.645 268.517 428.592C309.605 442.843 311.968 404.008 308.013 382.81C351.923 385.952 346.453 351.114 338.229 333.302C378.702 328.255 367.44 296.142 356.75 280.717C392.703 266.528 374.286 239.265 360.583 227.408C392.099 209.025 371.205 185.912 356.819 176.653C378.971 149.598 355.105 134.838 340.402 130.841C358.794 105.207 332.338 93.6611 316.811 91.0924C326.592 61.1403 300.398 57.53 286.079 59.4688C289.443 28.7514 264.722 29.992 251.941 34.452C247.605 7.4541 224.57 12.7981 213.595 18.8449C205.81 -5.57225 184.879 3.76303 175.387 11.4828C161.062 -9.52533 144.298 4.28399 137.707 13.8147C116.351 -4.06732 106.27 12.403 103.9 22.8733C82.2682 11.6909 74.2862 28.9102 72.9992 38.9176C51.244 31.9095 47.503 49.3728 48.352 58.9804C24.4376 56.2778 26.2343 75.6047 30.122 85.6059C7.64959 82.1028 12.4057 101.914 17.5928 112.257C-0.904905 114.315 4.60297 130.749 9.66914 138.709C-6.11657 146.252 3.0703 159.802 9.63696 165.635C-3.25741 177.786 8.49169 186.475 15.978 189.3C4.3463 201.527 17.8715 210.533 26.0881 213.508C18.2997 229.261 33.6361 232.019 42.2779 231.429C34.9794 247.464 51.358 247.285 60.4596 245.192Z" fill="white"/>
</svg>
